# xmcd
#
# Track frame offsets:
#	150
#	18850
#	32457
#	47355
#	57235
#	72095
#	84557
#	103812
#	117182
#	130892
#	143220
#	162142
#
# Disc length: 2337 seconds
#
# Revision: 1
# Processed by: cddbd v1.4PL0 Copyright (c) Steve Scherf et al.
# Submitted via: audiograbber 1.82.02
#
DISCID=94091f0c
DTITLE=Ray PRICE - Just enough love
DYEAR=1900
DGENRE=Country
TTITLE0=Wind beneath my wings
TTITLE1=Big ole teardrops
TTITLE2=Looking back
TTITLE3=The season for missing you
TTITLE4=Better class of losers
TTITLE5=Let it rain, let her cry
TTITLE6=Old loves never die
TTITLE7=Don't the morning always come too soon
TTITLE8=(I make the living) you make the living worthwhile
TTITLE9=Just enough love
TTITLE10=When you gave your love to me
TTITLE11=I'd do it all over again
EXTD=
EXTT0=
EXTT1=
EXTT2=
EXTT3=
EXTT4=
EXTT5=
EXTT6=
EXTT7=
EXTT8=
EXTT9=
EXTT10=
EXTT11=
PLAYORDER=
